HIERARCHY
ROOT Hips
{
	OFFSET 0.000000 0.000000 0.000000
	CHANNELS 6 Xposition Yposition Zposition Zrotation Yrotation Xrotation 
	JOINT LHipJoint
	{
		OFFSET 0.000000 0.000000 0.000000
		CHANNELS 3 Zrotation Yrotation Xrotation
		JOINT LeftUpLeg
		{
			OFFSET 1.363060 -1.794630 0.839290
			CHANNELS 3 Zrotation Yrotation Xrotation
			JOINT LeftLeg
			{
				OFFSET 2.448110 -6.726130 0.000000
				CHANNELS 3 Zrotation Yrotation Xrotation
				JOINT LeftFoot
				{
					OFFSET 2.562200 -7.039590 0.000000
					CHANNELS 3 Zrotation Yrotation Xrotation
					JOINT LeftToeBase
					{
						OFFSET 0.157640 -0.433110 2.322550
						CHANNELS 3 Zrotation Yrotation Xrotation
						End Site
						{
							OFFSET 0.000000 0.000000 0.000000
						}
					}
				}
			}
		}
	}
	JOINT RHipJoint
	{
		OFFSET 0.000000 0.000000 0.000000
		CHANNELS 3 Zrotation Yrotation Xrotation
		JOINT RightUpLeg
		{
			OFFSET -1.305520 -1.794630 0.839290
			CHANNELS 3 Zrotation Yrotation Xrotation
			JOINT RightLeg
			{
				OFFSET -2.542530 -6.985550 0.000000
				CHANNELS 3 Zrotation Yrotation Xrotation
				JOINT RightFoot
				{
					OFFSET -2.568260 -7.056230 0.000000
					CHANNELS 3 Zrotation Yrotation Xrotation
					JOINT RightToeBase
					{
						OFFSET -0.164730 -0.452590 2.363150
						CHANNELS 3 Zrotation Yrotation Xrotation
						End Site
						{
							OFFSET 0.000000 0.000000 0.000000
						}
					}
				}
			}
		}
	}
}
MOTION
Frames: 33
Frame Time: 0.008333
-0.688122 17.019859 1.298029 41.316670 86.356094 38.840662 -10.623147 1.324225 1.315211 -13.651995 11.816606 -22.156993 -2.494012 -0.241292 9.710919 0.796220 6.040499 0.621550 0.993700 0.000000 -32.865300 9.518396 -4.217554 -1.846936 0.142265 -14.284141 16.427914 1.027122 -2.238882 19.711911 0.217580 4.046460 9.342572 0.968000 -0.000000 -77.347200
-0.535367 17.004205 1.286600 42.671628 86.411383 40.139620 -10.588249 1.374865 1.342413 -13.636561 11.489996 -22.099500 -2.431932 -0.144143 10.819796 0.799468 6.114613 0.932814 1.034900 -0.000000 -31.829400 9.656238 -4.293700 -1.861083 -0.483380 -14.584063 16.325523 0.938559 -2.340251 20.657091 0.238093 4.682806 10.367723 1.246100 -0.000000 -79.448900
-0.382164 16.991009 1.275716 44.284843 86.449089 41.706409 -10.536486 1.424121 1.369776 -13.658404 11.148268 -22.048591 -2.368717 -0.052626 11.949796 0.813391 6.252455 1.158146 1.076600 -0.000000 -30.579900 9.814419 -4.366284 -1.862986 -1.136896 -14.849323 16.141687 0.838823 -2.441091 21.682903 0.246794 5.338084 11.489080 1.562400 -0.000000 -81.523700
-0.229352 16.980389 1.265252 46.050624 86.457563 43.433297 -10.466593 1.472171 1.396687 -13.719867 10.784788 -21.987701 -2.306571 0.031411 13.080266 0.839477 6.460650 1.262865 1.116100 0.000000 -29.112400 9.995512 -4.430566 -1.856828 -1.833018 -15.091989 15.848782 0.725130 -2.542623 22.837578 0.243570 6.050441 12.744803 1.938501 0.000000 -83.517700
-0.077600 16.972548 1.254899 47.701978 86.434815 45.054289 -10.386094 1.518135 1.422990 -13.804101 10.399764 -21.900580 -2.246265 0.107052 14.176711 0.878144 6.737748 1.233932 1.150800 -0.000000 -27.545500 10.185960 -4.480994 -1.841193 -2.520906 -15.265929 15.459726 0.598904 -2.642861 24.111539 0.223434 6.778564 14.135698 2.367600 0.000000 -85.315801
0.072423 16.967473 1.244464 49.110350 86.376485 46.439893 -10.299212 1.561370 1.446838 -13.907914 9.998388 -21.772112 -2.190157 0.173302 15.214577 0.928769 7.075924 1.059947 1.176300 0.000000 -25.940500 10.380919 -4.514446 -1.818087 -3.191117 -15.366558 14.965077 0.460984 -2.741122 25.524753 0.184188 7.523933 15.673489 2.858100 0.000000 -86.814600
0.220094 16.964971 1.233831 50.171350 86.282598 47.484484 -10.210981 1.601007 1.465927 -14.025969 9.591670 -21.590045 -2.140252 0.229483 16.169730 0.989793 7.461420 0.742421 1.187700 -0.000000 -24.377000 10.574171 -4.528930 -1.788625 -3.826417 -15.386215 14.363154 0.314239 -2.835863 27.082605 0.123441 8.269312 17.351882 3.408100 -0.000000 -87.901500
0.364937 16.964834 1.222935 50.816125 86.156261 48.118389 -10.126298 1.636385 1.477895 -14.151777 9.195021 -21.346954 -2.098069 0.275335 17.023288 1.058819 7.875367 0.292567 1.180500 -0.000001 -22.924201 10.759546 -4.523794 -1.753440 -4.407334 -15.319543 13.656456 0.163077 -2.925345 28.781393 0.039805 8.981133 19.144610 4.003100 0.000000 -88.464400
0.506666 16.966776 1.211725 51.009731 86.005496 48.305936 -10.050258 1.666998 1.480474 -14.275143 8.828137 -21.041677 -2.064369 0.311109 17.763389 1.132459 8.293169 -0.270373 1.150500 0.000000 -21.642300 10.930136 -4.500027 -1.713318 -4.909580 -15.164445 12.855882 0.013242 -3.008231 30.604427 -0.066171 9.601601 20.996600 4.607100 0.000000 -88.417500
0.645119 16.970541 1.200410 50.808139 85.827406 48.101614 -9.980937 1.694543 1.472800 -14.401927 8.502057 -20.667673 -2.040221 0.336317 18.372108 1.208756 8.705771 -0.915996 1.098500 -0.000000 -20.552400 11.089753 -4.457999 -1.670577 -5.349917 -14.945993 11.952928 -0.132176 -3.084000 32.554146 -0.192684 10.102183 22.874503 5.192500 -0.000000 -87.702300
0.780376 16.975840 1.188893 50.214509 85.638098 47.506994 -9.924547 1.718864 1.453882 -14.513180 8.238108 -20.234412 -2.024426 0.352367 18.853059 1.283221 9.084588 -1.615335 1.024100 0.000001 -19.689400 11.229121 -4.401364 -1.626621 -5.694052 -14.665466 10.974509 -0.267881 -3.153547 34.590750 -0.335663 10.373400 24.671684 5.672800 0.000000 -86.328301
0.912577 16.982492 1.177356 49.313504 85.440804 46.604566 -9.879873 1.741774 1.424431 -14.607877 8.043840 -19.743390 -2.016331 0.359724 19.201941 1.353433 9.421160 -2.333137 0.932200 0.000000 -19.049300 11.350460 -4.332386 -1.584773 -5.952583 -14.351566 9.926618 -0.393315 -3.218587 36.695392 -0.491398 10.345467 26.318391 5.978800 0.000000 -84.378800
1.041987 16.990391 1.165849 48.177027 85.242283 45.463572 -9.847289 1.764642 1.385896 -14.680319 7.923858 -19.199248 -2.014449 0.359357 19.421304 1.417050 9.708068 -3.036706 0.829101 -0.000000 -18.616900 11.453686 -4.253746 -1.548097 -6.127665 -14.027427 8.822794 -0.509604 -3.281421 38.839456 -0.656732 9.936963 27.734839 6.032000 -0.000000 -81.983800
1.168976 16.999527 1.154400 46.876739 85.048977 44.153630 -9.826680 1.788627 1.340599 -14.725803 7.876395 -18.607204 -2.017020 0.352254 19.516462 1.472567 9.943853 -3.697738 0.721900 0.000000 -18.363301 11.539438 -4.167724 -1.519370 -6.224009 -13.715040 7.677629 -0.619590 -3.344072 40.991708 -0.829906 9.082622 28.850215 5.768300 -0.000000 -79.325800
1.293915 17.009977 1.143009 45.475504 84.866824 42.735798 -9.817831 1.814514 1.291249 -14.740073 7.894247 -17.971845 -2.022118 0.339435 19.494933 1.519403 10.132415 -4.294271 0.617400 -0.000000 -18.249800 11.608466 -4.075835 -1.500833 -6.245959 -13.432081 6.505687 -0.726629 -3.407840 43.119311 -1.010454 7.745615 29.604120 5.152100 -0.000000 -76.579400
1.417153 17.021871 1.131557 44.016650 84.701780 41.252743 -9.820611 1.842587 1.240974 -14.719816 7.965053 -17.298099 -2.027840 0.321841 19.365656 1.557850 10.281359 -4.812425 0.521300 -0.000000 -18.232700 11.661166 -3.979082 -1.493855 -6.197543 -13.190284 5.321447 -0.833428 -3.473123 45.189052 -1.198528 5.929781 29.948303 4.187901 0.000000 -73.886300
1.539011 17.035372 1.119924 42.532001 84.559282 39.735318 -9.834830 1.872724 1.192738 -14.662035 8.073567 -16.589306 -2.032503 0.300314 19.138291 1.588863 10.400187 -5.247159 0.437000 -0.000001 -18.269500 11.697653 -3.878068 -1.499251 -6.082007 -12.996832 4.139921 -0.941166 -3.539400 47.165921 -1.394105 3.686101 29.851421 2.926000 -0.000000 -71.349699
1.659705 17.050665 1.107908 41.025446 84.441568 38.189053 -9.860343 1.904726 1.149684 -14.566174 8.202183 -15.849721 -2.034661 0.275507 18.821727 1.614369 10.502292 -5.599972 0.366400 -0.000000 -18.321600 11.717628 -3.773492 -1.516532 -5.902385 -12.851926 2.969606 -1.049515 -3.605981 49.023623 -1.595523 1.112300 29.289714 1.458800 -0.000000 -68.870600
1.779409 17.067816 1.095345 39.491073 84.351955 36.609152 -9.897267 1.938034 1.113887 -14.430400 8.334218 -15.081844 -2.033205 0.248109 18.425586 1.636094 10.597369 -5.879248 0.309400 0.000000 -18.360200 11.720209 -3.665950 -1.545054 -5.659725 -12.752534 1.822980 -1.156232 -3.670946 50.727925 -1.800598 -1.662994 28.276168 -0.093200 0.000000 -66.507300
1.898200 17.086819 1.081992 37.911597 84.291616 34.978691 -9.945243 1.972280 1.086506 -14.255173 8.457033 -14.286751 -2.027658 0.218598 17.957714 1.655489 10.691785 -6.097592 0.264300 0.000000 -18.370200 11.705104 -3.556867 -1.583794 -5.358939 -12.695342 0.708675 -1.257767 -3.732687 52.254872 -2.003905 -4.478442 26.838812 -1.592300 -0.000000 -64.088200
2.016032 17.107576 1.067717 36.241380 84.259772 33.255909 -10.004830 2.007112 1.068043 -14.039457 8.559680 -13.469554 -2.017635 0.187716 17.427276 1.673884 10.790025 -6.268768 0.228800 0.000000 -18.342000 11.670905 -3.446513 -1.629879 -4.996268 -12.666808 -0.366240 -1.349915 -3.787470 53.574519 -2.201869 -7.199430 25.059261 -2.928100 0.000000 -61.798000
2.132921 17.129843 1.052404 34.440270 84.253240 31.401656 -10.075064 2.042830 1.057873 -13.785279 8.639414 -12.632119 -2.003509 0.155881 16.840783 1.691638 10.890467 -6.406316 0.200300 0.000000 -18.282000 11.618496 -3.336593 -1.681309 -4.578567 -12.661848 -1.400914 -1.428527 -3.833600 54.679762 -2.385513 -9.678972 23.001872 -4.001700 -0.000000 -59.340600
2.248764 17.153259 1.036063 32.456190 84.266796 29.366407 -10.154744 2.079973 1.054421 -13.494485 8.698686 -11.779285 -1.985908 0.123655 16.205663 1.708460 10.987631 -6.521599 0.176300 -0.000000 -18.201600 11.549209 -3.227737 -1.735127 -4.108474 -12.671369 -2.396407 -1.489860 -3.868412 55.562862 -2.547394 -11.816625 20.760218 -4.763300 0.000000 -56.682300
2.363467 17.177342 1.018714 30.227216 84.298740 27.090668 -10.243291 2.119223 1.055323 -13.164560 8.743479 -10.918953 -1.965505 0.092252 15.534256 1.722875 11.068491 -6.624522 0.154500 -0.000000 -18.114300 11.463937 -3.119046 -1.788572 -3.581351 -12.685367 -3.348192 -1.531010 -3.887714 56.208623 -2.683755 -13.569457 18.470426 -5.221600 0.000000 -54.138000
2.476992 17.201538 1.000588 27.713237 84.339922 24.535839 -10.336459 2.161862 1.057897 -12.801650 8.787076 -10.056999 -1.943642 0.061895 14.832782 1.733356 11.122050 -6.718632 0.133600 -0.000000 -18.040700 11.368039 -3.011249 -1.839187 -3.007560 -12.702097 -4.265923 -1.550505 -3.891464 56.632313 -2.786376 -14.895157 16.195365 -5.393500 -0.000000 -51.554600
2.589346 17.225261 0.981939 24.880393 84.386073 21.669495 -10.430410 2.208898 1.059452 -12.407348 8.842620 -9.201829 -1.921480 0.033272 14.112705 1.737690 11.133181 -6.806006 0.113100 0.000000 -17.996300 11.266419 -2.903979 -1.885035 -2.390188 -12.720704 -5.152962 -1.547790 -3.878715 56.838627 -2.852117 -15.802051 14.019573 -5.334100 -0.000000 -49.086100
2.700579 17.247935 0.963112 21.713275 84.433101 18.477458 -10.520107 2.260778 1.057293 -11.985892 8.923607 -8.362020 -1.900239 0.006658 13.384885 1.733790 11.088592 -6.885829 0.092700 -0.000000 -17.994000 11.165259 -2.797416 -1.924509 -1.735345 -12.742795 -6.015625 -1.523114 -3.850184 56.838084 -2.879321 -16.316245 11.999898 -5.104400 -0.000000 -46.848600
2.810769 17.269058 0.944434 18.223120 84.479336 14.971725 -10.600432 2.317056 1.049250 -11.541733 9.041242 -7.545173 -1.880888 -0.018040 12.661000 1.719953 10.978082 -6.956094 0.072899 -0.000000 -18.040900 11.070694 -2.692763 -1.956624 -1.050705 -12.773781 -6.860338 -1.476922 -3.807977 56.643007 -2.868210 -16.476530 10.165081 -4.761700 0.000000 -44.911500
2.920107 17.288203 0.926294 14.464550 84.523413 11.208393 -10.666854 2.375848 1.033587 -11.083257 9.204241 -6.758998 -1.864311 -0.041671 11.951193 1.695147 10.796351 -7.013639 0.054300 0.000000 -18.137600 10.987996 -2.592359 -1.979847 -0.346997 -12.817837 -7.697105 -1.409527 -3.755449 56.268013 -2.821211 -16.330866 8.522470 -4.354500 0.000000 -43.312000
3.028699 17.305068 0.908941 10.463350 84.573962 7.211493 -10.718109 2.434764 1.010398 -10.611159 9.408822 -6.007039 -1.850383 -0.064326 11.268354 1.659146 10.541735 -7.059393 0.036800 0.000000 -18.280300 10.918319 -2.498127 -1.996133 0.371674 -12.886325 -8.523932 -1.321139 -3.695239 55.718803 -2.742962 -15.935567 7.064818 -3.921600 0.000000 -42.105800
3.136832 17.319549 0.892645 6.337346 84.628538 3.101893 -10.753936 2.490159 0.979367 -10.139586 9.657070 -5.295391 -1.839574 -0.087782 10.618960 1.612898 10.221442 -7.092564 0.021000 0.000000 -18.458600 10.861826 -2.413471 -2.003291 1.090787 -12.978166 -9.354303 -1.211541 -3.631359 55.012354 -2.638952 -15.342978 5.762582 -3.486400 -0.000000 -41.208000
3.244691 17.331574 0.877524 2.165373 84.691632 -1.041942 -10.777448 2.539335 0.942351 -9.675581 9.938571 -4.625736 -1.831475 -0.112638 10.010306 1.558273 9.846735 -7.116818 0.006400 -0.000001 -18.661100 10.814482 -2.339793 -2.002264 1.803173 -13.096738 -10.188857 -1.080903 -3.565655 54.156230 -2.516159 -14.609179 4.585059 -3.066100 0.000000 -40.572500
3.352473 17.341277 0.863622 -1.980507 84.763587 -5.147491 -10.792868 2.580475 0.901281 -9.225726 10.242613 -3.998874 -1.825600 -0.139301 9.446602 1.497819 9.432779 -7.137664 -0.007701 -0.000000 -18.876600 10.771044 -2.276931 -1.993530 2.503371 -13.238872 -11.028102 -0.929945 -3.498743 53.158189 -2.382231 -13.788785 3.500470 -2.671599 0.000000 -40.121500
